<svg width="132" height="23" viewBox="0 0 132 23" fill="none" xmlns="http://www.w3.org/2000/svg">
<mask id="mask0_13417_114860" style="mask-type:luminance" maskUnits="userSpaceOnUse" x="0" y="0" width="132" height="23">
<path fill-rule="evenodd" clip-rule="evenodd" d="M103.01 0.335938C109.497 0.335938 112.979 5.02655 112.979 11.5329C112.979 18.0089 109.437 22.6693 103.01 22.6693C96.6124 22.6693 93.0417 18.0089 93.0417 11.5329C93.0417 5.02655 96.5529 0.335938 103.01 0.335938ZM125.215 0.335938C127.268 0.335938 129.232 0.608297 130.779 1.12275L130.035 4.6634C128.547 4.11869 126.94 3.87659 125.482 3.87659C123.756 3.87659 122.09 4.39105 122.09 6.1765C122.09 7.6896 123.31 8.44615 126.107 9.59611C129.619 11.0789 131.999 12.5315 131.999 16.3143C131.999 20.6417 128.309 22.6693 124.143 22.6693C122.209 22.6693 119.769 22.3364 117.686 21.5798L118.459 17.9787C120.364 18.7655 122.447 19.1286 123.994 19.1286C126.345 19.1286 127.655 18.2813 127.655 16.6169C127.655 15.013 126.375 14.1959 123.489 13.046C120.096 11.6539 117.745 9.92899 117.745 6.60017C117.745 2.1214 121.614 0.335938 125.215 0.335938H125.215ZM13.8201 0.335938L21.529 22.1499H16.8012L14.874 16.8339H6.59306L4.72607 22.1499H0.0585938L7.79757 0.335938H13.8201ZM31.4462 0.335938V22.1499H26.8454V0.335938H31.4462ZM52.661 0.335938V3.9105H47.1966V22.1499H42.9072V3.9105H37.325V0.335938H52.661ZM67.0846 0.335938C70.9405 0.335938 74.5555 1.80243 74.5555 6.26298C74.5555 8.77033 73.2918 10.4232 71.1438 11.2492L70.9103 11.3346V11.3957C72.2659 11.8845 72.8684 12.7094 73.6215 15.3369C74.1517 17.1944 74.6626 18.9346 75.2005 20.7609L75.6097 22.1499H70.8802C70.8589 22.0652 70.8368 21.9769 70.8138 21.8854L70.6674 21.3017L70.5684 20.907L70.3588 20.0714L70.2506 19.6404L70.1111 19.0862C69.8558 18.0732 69.6071 17.0942 69.4343 16.4367C68.7905 14.1514 68.2888 13.3942 65.4439 13.3528L65.1867 13.351H63.1383V22.1499H58.7401V0.335938H67.0846ZM86.8561 0.335938V22.1499H82.2553V0.335938H86.8561ZM103.01 3.87659C99.1417 3.87659 97.3861 7.2962 97.3861 11.5329C97.3861 15.7393 99.1715 19.1286 103.04 19.1286C106.938 19.1286 108.634 15.7393 108.634 11.5329C108.634 7.2962 106.878 3.87659 103.01 3.87659ZM10.7486 3.81884L7.61689 13.2288H13.8502L10.7486 3.81884ZM66.1507 3.9105H63.1384V9.77644H66.0302C68.4402 9.77644 70.1572 9.1043 70.1572 6.84347C70.1572 4.39933 68.1389 3.9105 66.1507 3.9105Z" fill="white"/>
</mask>
<g mask="url(#mask0_13417_114860)">
<mask id="mask1_13417_114860" style="mask-type:luminance" maskUnits="userSpaceOnUse" x="-87" y="-107" width="1280" height="1600">
<path fill-rule="evenodd" clip-rule="evenodd" d="M-87 1493H1193V-107H-87V1493Z" fill="white"/>
</mask>
<g mask="url(#mask1_13417_114860)">
<path fill-rule="evenodd" clip-rule="evenodd" d="M-0.941406 -0.664062H132.999V23.6693H-0.941406L-0.941406 -0.664062Z" fill="white"/>
</g>
</g>
</svg>
