<svg width="128" height="25" viewBox="0 0 128 25" fill="none" xmlns="http://www.w3.org/2000/svg">
<path fill-rule="evenodd" clip-rule="evenodd" d="M17.4635 1.75656C16.0555 1.08456 14.1355 0.764562 12.1515 0.764562C4.85554 0.764562 0.727539 5.75656 0.727539 12.6366C0.727539 19.5166 5.04754 24.3806 11.9915 24.3806C14.0075 24.3806 16.0235 24.0606 17.6555 23.2606L16.8555 20.3486C15.5755 20.9886 14.1675 21.3406 12.3435 21.3406C7.12754 21.3406 4.47154 17.2766 4.47154 12.6686C4.47154 7.80456 7.03154 3.80456 12.3755 3.80456C13.9115 3.80456 15.4155 4.12456 16.5995 4.70056L17.4635 1.75656ZM37.6875 15.5166C37.6875 10.0126 34.5195 6.71656 29.4635 6.71656C24.4395 6.71656 21.2395 10.0126 21.2395 15.5166C21.2395 21.0206 24.4395 24.3806 29.4635 24.3806C34.4875 24.3806 37.6875 21.0206 37.6875 15.5166ZM34.0395 15.5166C34.0395 19.1326 32.5995 21.5966 29.4635 21.5966C26.3915 21.5966 24.8875 19.1326 24.8875 15.5166C24.8875 11.9966 26.3275 9.50056 29.4635 9.50056C32.5995 9.50056 34.0395 11.9966 34.0395 15.5166ZM43.3515 7.10056V23.9966H46.9995V14.6526C46.9995 10.9406 49.1115 9.50056 51.1275 9.50056C53.9115 9.50056 54.6795 11.2926 54.6795 14.2366V23.9966H58.3275V12.8606C58.3275 9.14856 55.9915 6.71656 52.1835 6.71656C49.9115 6.71656 47.8955 7.70856 46.9675 9.46856H46.9035V7.10056H43.3515ZM75.2875 7.67656C73.8155 7.03656 71.8635 6.71656 70.1035 6.71656C66.9995 6.71656 63.8635 8.25256 63.8635 11.7406C63.8635 14.1086 65.4955 15.6446 68.8555 16.7966C71.5115 17.6926 72.6955 18.3326 72.6955 19.6126C72.6955 21.0846 71.4155 21.5966 69.5915 21.5966C68.2155 21.5966 66.1675 21.1806 64.3435 20.3806L63.5435 23.1966C65.3035 23.9646 67.6715 24.3806 69.5595 24.3806C72.7595 24.3806 76.1515 23.1326 76.1515 19.4206C76.1515 16.5086 74.1035 15.1646 70.7115 14.0126C68.1195 13.1166 67.3195 12.5726 67.3195 11.3886C67.3195 10.0126 68.6955 9.50056 70.0715 9.50056C71.4155 9.50056 72.9195 9.72456 74.4555 10.3966L75.2875 7.67656ZM97.2715 15.5166C97.2715 10.0126 94.1035 6.71656 89.0475 6.71656C84.0235 6.71656 80.8235 10.0126 80.8235 15.5166C80.8235 21.0206 84.0235 24.3806 89.0475 24.3806C94.0715 24.3806 97.2715 21.0206 97.2715 15.5166ZM93.6235 15.5166C93.6235 19.1326 92.1835 21.5966 89.0475 21.5966C85.9755 21.5966 84.4715 19.1326 84.4715 15.5166C84.4715 11.9966 85.9115 9.50056 89.0475 9.50056C92.1835 9.50056 93.6235 11.9966 93.6235 15.5166ZM102.936 0.476562V23.9966H106.584V0.476562H102.936ZM127.608 16.6046V15.0366C127.608 9.98056 125.112 6.71656 120.28 6.71656C115.288 6.71656 112.216 10.4606 112.216 15.5806C112.216 20.7006 115.448 24.3806 121.272 24.3806C123.16 24.3806 124.888 24.1246 126.36 23.6126L125.88 20.8926C124.6 21.3726 123 21.5966 121.592 21.5966C118.328 21.5966 116.024 19.8366 115.8 16.6046H127.608ZM120.28 9.34056C122.648 9.34056 124.248 11.0686 124.216 13.8526V13.9166H115.8C116.088 11.2286 117.688 9.34056 120.28 9.34056Z" fill="white"/>
</svg>
