<svg width="25" height="25" viewBox="0 0 25 25" fill="none" xmlns="http://www.w3.org/2000/svg">
  <path fill-rule="evenodd" clip-rule="evenodd" d="M1.5625 5.38863C1.5625 4.66055 2.15273 4.07031 2.88082 4.07031H22.1185C22.8466 4.07031 23.4368 4.66054 23.4368 5.38863V20.2515C23.4368 20.9795 22.8466 21.5698 22.1185 21.5698H2.88082C2.15273 21.5698 1.5625 20.9795 1.5625 20.2515V5.38863ZM7.49579 13.2678C8.44069 13.2678 9.20668 12.5018 9.20668 11.5569C9.20668 10.612 8.44069 9.84601 7.49579 9.84601C6.55089 9.84601 5.78491 10.612 5.78491 11.5569C5.78491 12.5018 6.55089 13.2678 7.49579 13.2678ZM7.49579 14.9787C9.38558 14.9787 10.9176 13.4467 10.9176 11.5569C10.9176 9.66711 9.38558 8.13513 7.49579 8.13513C5.606 8.13513 4.07402 9.66711 4.07402 11.5569C4.07402 13.4467 5.606 14.9787 7.49579 14.9787ZM5.51751 16.9485C4.99975 16.9485 4.58003 17.3682 4.58003 17.8859C4.58003 18.4037 4.99975 18.8234 5.51751 18.8234H9.47246C9.99021 18.8234 10.4099 18.4037 10.4099 17.8859C10.4099 17.3682 9.99021 16.9485 9.47246 16.9485H5.51751Z" fill="#3E445B"/>
</svg>
