<svg width="16" height="14" viewBox="0 0 16 14" fill="none" xmlns="http://www.w3.org/2000/svg">
  <path fill-rule="evenodd" clip-rule="evenodd" d="M10.8782 11.0461C12.2464 10.3303 13.1864 8.91235 13.1864 7.26111C13.1864 4.89404 11.2678 2.97551 8.90074 2.97551C8.20764 2.97551 7.55303 3.14085 6.97326 3.43079L5.97426 1.60737C6.85082 1.15435 7.84523 0.898438 8.90074 0.898438C12.414 0.898438 15.2635 3.74792 15.2635 7.2611C15.2635 9.70288 13.884 11.8095 11.8659 12.8763C10.9213 13.3837 9.85215 13.6442 8.77389 13.6238C5.32871 13.5581 2.58117 10.7176 2.64912 7.27017L0.0351562 7.27924L4.72848 3.76381V7.29053C4.68316 9.59416 6.51567 11.5014 8.81241 11.549C9.53277 11.5603 10.2462 11.3881 10.8782 11.0461Z" fill="#3E445B"/>
</svg>
