<svg width="45" height="46" viewBox="0 0 45 46" fill="none" xmlns="http://www.w3.org/2000/svg">
  <path fill-rule="evenodd" clip-rule="evenodd" d="M17.0508 36.1426C18.7617 36.8809 20.5781 37.25 22.5 37.25C24.4453 37.25 26.2734 36.8809 27.9844 36.1426C29.6953 35.4043 31.1836 34.3965 32.4492 33.1191C33.7148 31.8418 34.7168 30.3477 35.4551 28.6367C36.1934 26.9258 36.5625 25.1094 36.5625 23.1875C36.5625 21.2422 36.1934 19.4141 35.4551 17.7031C34.7168 15.9922 33.7148 14.5039 32.4492 13.2383C31.1836 11.9727 29.6953 10.9707 27.9844 10.2324C26.2734 9.49414 24.457 9.125 22.5352 9.125C20.5898 9.125 18.7617 9.49414 17.0508 10.2324C15.3398 10.9707 13.8457 11.9727 12.5684 13.2383C11.291 14.5039 10.2832 15.9922 9.54492 17.7031C8.80664 19.4141 8.4375 21.2305 8.4375 23.1523C8.4375 25.0977 8.80664 26.9258 9.54492 28.6367C10.2832 30.3477 11.291 31.8418 12.5684 33.1191C13.8457 34.3965 15.3398 35.4043 17.0508 36.1426ZM17.5266 16.563L15.8693 18.2203L20.842 23.193L15.871 28.164L17.5282 29.8212L22.4992 24.8502L27.4702 29.8212L29.1275 28.164L24.1565 23.193L29.1292 18.2203L27.4719 16.563L22.4992 21.5357L17.5266 16.563Z" fill="#CE1543"/>
</svg>
