<svg width="26" height="26" viewBox="0 0 26 26" fill="none" xmlns="http://www.w3.org/2000/svg">
  <path fill-rule="evenodd" clip-rule="evenodd" d="M8.15625 24.5156C9.67708 25.1719 11.2917 25.5 13 25.5C14.7292 25.5 16.3542 25.1719 17.875 24.5156C19.3958 23.8594 20.7188 22.9635 21.8438 21.8281C22.9688 20.6927 23.8594 19.3646 24.5156 17.8438C25.1719 16.3229 25.5 14.7083 25.5 13C25.5 11.2708 25.1719 9.64583 24.5156 8.125C23.8594 6.60417 22.9688 5.28125 21.8438 4.15625C20.7188 3.03125 19.3958 2.14062 17.875 1.48438C16.3542 0.828125 14.7396 0.5 13.0312 0.5C11.3021 0.5 9.67708 0.828125 8.15625 1.48438C6.63542 2.14062 5.30729 3.03125 4.17188 4.15625C3.03646 5.28125 2.14062 6.60417 1.48438 8.125C0.828125 9.64583 0.5 11.2604 0.5 12.9688C0.5 14.6979 0.828125 16.3229 1.48438 17.8438C2.14062 19.3646 3.03646 20.6927 4.17188 21.8281C5.30729 22.9635 6.63542 23.8594 8.15625 24.5156ZM8.5813 7.11328L7.10816 8.58642L11.5277 13.006L7.10844 17.4253L8.58158 18.8984L13.0009 14.4791L17.4201 18.8984L18.8933 17.4253L14.474 13.006L18.8935 8.58642L17.4204 7.11328L13.0009 11.5328L8.5813 7.11328Z" fill="#CE1543"/>
</svg>
