<svg width="16" height="16" viewBox="0 0 16 16" fill="none" xmlns="http://www.w3.org/2000/svg">
<path fill-rule="evenodd" clip-rule="evenodd" d="M1.84375 2.60156C1.37776 2.60156 1 2.97932 1 3.44531V12.9578C1 13.4238 1.37776 13.8016 1.84375 13.8016H9.42771C9.15412 13.2601 9 12.6481 9 12C9 9.79086 10.7909 8 13 8C13.7286 8 14.4117 8.19479 15 8.53513V3.44531C15 2.97932 14.6222 2.60156 14.1562 2.60156H1.84375ZM5.89242 7.39117C5.89242 7.99592 5.40217 8.48617 4.79742 8.48617C4.19267 8.48617 3.70242 7.99592 3.70242 7.39117C3.70242 6.78642 4.19267 6.29617 4.79742 6.29617C5.40217 6.29617 5.89242 6.78642 5.89242 7.39117ZM6.98742 7.39117C6.98742 8.60068 6.00693 9.58117 4.79742 9.58117C3.58792 9.58117 2.60742 8.60068 2.60742 7.39117C2.60742 6.18167 3.58792 5.20117 4.79742 5.20117C6.00693 5.20117 6.98742 6.18167 6.98742 7.39117ZM2.93125 11.442C2.93125 11.1106 3.19988 10.842 3.53125 10.842H6.0625C6.39387 10.842 6.6625 11.1106 6.6625 11.442C6.6625 11.7734 6.39387 12.042 6.0625 12.042H3.53125C3.19988 12.042 2.93125 11.7734 2.93125 11.442Z" fill="#3E445B"/>
<path fill-rule="evenodd" clip-rule="evenodd" d="M12.2873 14.0379L12.4461 15.0674H13.3039L13.4627 14.0379C13.6427 13.9859 13.8254 13.9106 14.0107 13.8118C14.196 13.713 14.3522 13.6012 14.4793 13.4764L15.3529 13.6636L15.75 13.0084L15.0035 12.3221C15.0246 12.2285 15.0352 12.0985 15.0352 11.9322C15.0352 11.7658 15.0246 11.6358 15.0035 11.5422L15.75 10.8559L15.3529 10.2007L14.4793 10.3879C14.3522 10.2631 14.196 10.1513 14.0107 10.0525C13.8254 9.95376 13.6427 9.87837 13.4627 9.82637L13.3039 8.79688H12.4461L12.2873 9.82637C12.1073 9.87837 11.9246 9.95376 11.7393 10.0525C11.554 10.1513 11.3978 10.2631 11.2707 10.3879L10.3971 10.2007L10 10.8559L10.7465 11.5422C10.7254 11.6358 10.7148 11.7658 10.7148 11.9322C10.7148 12.0985 10.7254 12.2285 10.7465 12.3221L10 13.0084L10.3971 13.6636L11.2707 13.4764C11.3978 13.6012 11.554 13.713 11.7393 13.8118C11.9246 13.9106 12.1073 13.9859 12.2873 14.0379ZM13.7975 12.8362C13.5645 13.065 13.2574 13.1793 12.8762 13.1793C12.495 13.1793 12.1879 13.065 11.9549 12.8362C11.722 12.6074 11.6055 12.3058 11.6055 11.9315C11.6055 11.5571 11.722 11.2555 11.9549 11.0268C12.1879 10.798 12.495 10.6836 12.8762 10.6836C13.2574 10.6836 13.5645 10.798 13.7975 11.0268C14.0304 11.2555 14.1469 11.5571 14.1469 11.9315C14.1469 12.3058 14.0304 12.6074 13.7975 12.8362Z" fill="#3E445B"/>
</svg>
