<svg width="25" height="25" viewBox="0 0 25 25" fill="none" xmlns="http://www.w3.org/2000/svg">
  <path d="M14.9741 21.8752C14.6269 21.8752 14.3187 21.8362 14.0496 21.7581C13.7805 21.6799 13.5244 21.5714 13.2814 21.4325V3.56771C13.5244 3.42882 13.7762 3.32032 14.0366 3.24219C14.297 3.16406 14.5922 3.125 14.922 3.125C15.7901 3.125 16.5366 3.43316 17.1616 4.04949C17.7866 4.66582 18.1252 5.4167 18.1773 6.30212C19.1842 6.38893 20.0523 6.80994 20.7815 7.56516C21.5107 8.32038 21.8752 9.22751 21.8752 10.2866C21.8752 10.6859 21.8232 11.0635 21.719 11.4194C21.6148 11.7753 21.4673 12.1095 21.2763 12.422C21.4673 12.7692 21.6148 13.1338 21.719 13.5158C21.8232 13.8977 21.8752 14.271 21.8752 14.6356C21.8752 15.7467 21.5324 16.6712 20.8466 17.409C20.1608 18.1469 19.3058 18.5592 18.2814 18.646C18.1946 19.4794 17.8387 20.2259 17.2137 20.8856C16.5887 21.5454 15.8422 21.8752 14.9741 21.8752ZM10.0261 21.8752C9.1407 21.8752 8.38983 21.5454 7.7735 20.8856C7.15717 20.2259 6.8056 19.4794 6.7188 18.646C5.69448 18.5592 4.83943 18.1295 4.15366 17.357C3.46789 16.5844 3.125 15.6425 3.125 14.5314C3.125 14.1494 3.17274 13.7805 3.26823 13.4246C3.36372 13.0687 3.50695 12.7258 3.69792 12.396C3.50695 12.0834 3.36372 11.7536 3.26823 11.4064C3.17274 11.0591 3.125 10.6859 3.125 10.2866C3.125 9.24487 3.48525 8.35076 4.20574 7.60422C4.92624 6.85769 5.78128 6.42365 6.77088 6.30212C6.8056 5.4167 7.13981 4.66582 7.7735 4.04949C8.40719 3.43316 9.16675 3.125 10.0522 3.125C10.382 3.125 10.6815 3.16406 10.9506 3.24219C11.2197 3.32032 11.4758 3.42882 11.7189 3.56771V21.4325C11.4758 21.5714 11.2197 21.6799 10.9506 21.7581C10.6815 21.8362 10.3734 21.8752 10.0261 21.8752Z" fill="#3E445B"/>
</svg>
